<mxfile host="app.diagrams.net" modified="2024-03-29T08:15:39.165Z" agent="Mozilla/5.0 (Windows NT 10.0; Win64; x64) AppleWebKit/537.36 (KHTML, like Gecko) Chrome/123.0.0.0 Safari/537.36" etag="EqNcTBBO-WYFJ94nx6eK" version="22.1.18" type="device">
  <diagram name="Page-1" id="Pgx5fHqGE96ShUbaQsOS">
    <mxGraphModel dx="1185" dy="651" grid="1" gridSize="10" guides="1" tooltips="1" connect="1" arrows="1" fold="1" page="1" pageScale="1" pageWidth="850" pageHeight="1100" math="0" shadow="0">
      <root>
        <mxCell id="0" />
        <mxCell id="1" parent="0" />
        <mxCell id="KijLpBUtDXNSiUqx_3ii-1" value="&lt;font style=&quot;font-size: 16px;&quot;&gt;Z80&lt;br style=&quot;font-size: 16px;&quot;&gt;CPU&lt;/font&gt;" style="rounded=0;whiteSpace=wrap;html=1;labelBackgroundColor=none;glass=0;shadow=0;fontStyle=1;fontSize=16;fontFamily=Architects Daughter;fontSource=https%3A%2F%2Ffonts.googleapis.com%2Fcss%3Ffamily%3DArchitects%2BDaughter;sketch=1;curveFitting=1;jiggle=2;fillColor=#bac8d3;strokeColor=#23445d;" vertex="1" parent="1">
          <mxGeometry x="40" y="120" width="80" height="320" as="geometry" />
        </mxCell>
        <mxCell id="KijLpBUtDXNSiUqx_3ii-3" value="&lt;font style=&quot;font-size: 16px;&quot;&gt;8K ROM&lt;/font&gt;" style="rounded=0;whiteSpace=wrap;html=1;labelBackgroundColor=none;fontStyle=1;fontSize=16;fontFamily=Architects Daughter;fontSource=https%3A%2F%2Ffonts.googleapis.com%2Fcss%3Ffamily%3DArchitects%2BDaughter;sketch=1;curveFitting=1;jiggle=2;fillColor=#bac8d3;strokeColor=#23445d;" vertex="1" parent="1">
          <mxGeometry x="160" y="200" width="120" height="80" as="geometry" />
        </mxCell>
        <mxCell id="KijLpBUtDXNSiUqx_3ii-4" value="&lt;font style=&quot;font-size: 16px;&quot;&gt;8K RAM&lt;/font&gt;" style="rounded=0;whiteSpace=wrap;html=1;labelBackgroundColor=none;fontStyle=1;fontSize=16;fontFamily=Architects Daughter;fontSource=https%3A%2F%2Ffonts.googleapis.com%2Fcss%3Ffamily%3DArchitects%2BDaughter;sketch=1;curveFitting=1;jiggle=2;fillColor=#bac8d3;strokeColor=#23445d;" vertex="1" parent="1">
          <mxGeometry x="320" y="200" width="120" height="80" as="geometry" />
        </mxCell>
        <mxCell id="KijLpBUtDXNSiUqx_3ii-20" value="" style="endArrow=block;html=1;rounded=0;strokeWidth=2;endFill=1;startArrow=block;startFill=1;sketch=1;curveFitting=1;jiggle=2;fillColor=#bac8d3;strokeColor=#23445d;fontColor=#000000;" edge="1" parent="1">
          <mxGeometry width="50" height="50" relative="1" as="geometry">
            <mxPoint x="120" y="320" as="sourcePoint" />
            <mxPoint x="480" y="320" as="targetPoint" />
          </mxGeometry>
        </mxCell>
        <mxCell id="KijLpBUtDXNSiUqx_3ii-66" value="&lt;font style=&quot;font-size: 12px;&quot;&gt;Data, Address&lt;/font&gt;" style="edgeLabel;html=1;align=center;verticalAlign=bottom;resizable=0;points=[];labelPosition=center;verticalLabelPosition=top;fontSize=12;labelBackgroundColor=none;fontFamily=Architects Daughter;fontSource=https%3A%2F%2Ffonts.googleapis.com%2Fcss%3Ffamily%3DArchitects%2BDaughter;sketch=1;curveFitting=1;jiggle=2;fontColor=#000000;fontStyle=1" vertex="1" connectable="0" parent="KijLpBUtDXNSiUqx_3ii-20">
          <mxGeometry x="-0.7796" y="-1" relative="1" as="geometry">
            <mxPoint x="140" y="-1" as="offset" />
          </mxGeometry>
        </mxCell>
        <mxCell id="KijLpBUtDXNSiUqx_3ii-26" value="" style="endArrow=block;html=1;rounded=0;strokeWidth=2;endFill=1;entryX=0.5;entryY=1;entryDx=0;entryDy=0;sketch=1;curveFitting=1;jiggle=2;fillColor=#bac8d3;strokeColor=#23445d;fontColor=#000000;" edge="1" parent="1" target="KijLpBUtDXNSiUqx_3ii-3">
          <mxGeometry width="50" height="50" relative="1" as="geometry">
            <mxPoint x="219.72000000000003" y="320" as="sourcePoint" />
            <mxPoint x="219.72000000000003" y="360" as="targetPoint" />
          </mxGeometry>
        </mxCell>
        <mxCell id="KijLpBUtDXNSiUqx_3ii-27" value="" style="endArrow=block;html=1;rounded=0;strokeWidth=2;endFill=1;entryX=0.5;entryY=1;entryDx=0;entryDy=0;sketch=1;curveFitting=1;jiggle=2;fillColor=#bac8d3;strokeColor=#23445d;fontColor=#000000;" edge="1" parent="1" target="KijLpBUtDXNSiUqx_3ii-4">
          <mxGeometry width="50" height="50" relative="1" as="geometry">
            <mxPoint x="380" y="320" as="sourcePoint" />
            <mxPoint x="369.72" y="390" as="targetPoint" />
          </mxGeometry>
        </mxCell>
        <mxCell id="KijLpBUtDXNSiUqx_3ii-52" value="&lt;font style=&quot;font-size: 16px;&quot;&gt;8K VRAM&lt;/font&gt;" style="rounded=0;whiteSpace=wrap;html=1;labelBackgroundColor=none;fontStyle=1;fontSize=16;fontFamily=Architects Daughter;fontSource=https%3A%2F%2Ffonts.googleapis.com%2Fcss%3Ffamily%3DArchitects%2BDaughter;sketch=1;curveFitting=1;jiggle=2;fillColor=#bac8d3;strokeColor=#23445d;" vertex="1" parent="1">
          <mxGeometry x="600" y="360" width="120" height="80" as="geometry" />
        </mxCell>
        <mxCell id="KijLpBUtDXNSiUqx_3ii-53" value="&lt;font style=&quot;font-size: 16px;&quot;&gt;VRAM&lt;br style=&quot;font-size: 16px;&quot;&gt;Control&lt;/font&gt;" style="rounded=0;whiteSpace=wrap;html=1;labelBackgroundColor=none;fontStyle=1;fontSize=16;fontFamily=Architects Daughter;fontSource=https%3A%2F%2Ffonts.googleapis.com%2Fcss%3Ffamily%3DArchitects%2BDaughter;sketch=1;curveFitting=1;jiggle=2;fillColor=#bac8d3;strokeColor=#23445d;" vertex="1" parent="1">
          <mxGeometry x="480" y="240" width="80" height="200" as="geometry" />
        </mxCell>
        <mxCell id="KijLpBUtDXNSiUqx_3ii-54" value="&lt;font style=&quot;font-size: 16px;&quot;&gt;Video Signal&lt;br style=&quot;font-size: 16px;&quot;&gt;Generator&lt;/font&gt;" style="rounded=0;whiteSpace=wrap;html=1;labelBackgroundColor=none;fontStyle=1;fontSize=16;fontFamily=Architects Daughter;fontSource=https%3A%2F%2Ffonts.googleapis.com%2Fcss%3Ffamily%3DArchitects%2BDaughter;sketch=1;curveFitting=1;jiggle=2;fillColor=#bac8d3;strokeColor=#23445d;" vertex="1" parent="1">
          <mxGeometry x="600" y="120" width="120" height="80" as="geometry" />
        </mxCell>
        <mxCell id="KijLpBUtDXNSiUqx_3ii-55" value="&lt;font style=&quot;font-size: 16px;&quot;&gt;Video&lt;br style=&quot;font-size: 16px;&quot;&gt;Timing&lt;br style=&quot;font-size: 16px;&quot;&gt;&lt;/font&gt;" style="rounded=0;whiteSpace=wrap;html=1;labelBackgroundColor=none;fontStyle=1;fontSize=16;fontFamily=Architects Daughter;fontSource=https%3A%2F%2Ffonts.googleapis.com%2Fcss%3Ffamily%3DArchitects%2BDaughter;sketch=1;curveFitting=1;jiggle=2;fillColor=#bac8d3;strokeColor=#23445d;" vertex="1" parent="1">
          <mxGeometry x="480" y="120" width="80" height="80" as="geometry" />
        </mxCell>
        <mxCell id="KijLpBUtDXNSiUqx_3ii-57" value="" style="endArrow=none;html=1;rounded=0;strokeWidth=2;endFill=0;startArrow=block;startFill=1;sketch=1;curveFitting=1;jiggle=2;fillColor=#bac8d3;strokeColor=#23445d;fontColor=#000000;" edge="1" parent="1">
          <mxGeometry width="50" height="50" relative="1" as="geometry">
            <mxPoint x="560" y="280" as="sourcePoint" />
            <mxPoint x="680" y="280" as="targetPoint" />
          </mxGeometry>
        </mxCell>
        <mxCell id="KijLpBUtDXNSiUqx_3ii-76" value="Data" style="edgeLabel;html=1;align=center;verticalAlign=bottom;resizable=0;points=[];labelPosition=center;verticalLabelPosition=top;fontSize=12;labelBackgroundColor=none;fontFamily=Architects Daughter;fontSource=https%3A%2F%2Ffonts.googleapis.com%2Fcss%3Ffamily%3DArchitects%2BDaughter;sketch=1;curveFitting=1;jiggle=2;fontColor=#000000;fontStyle=1" vertex="1" connectable="0" parent="KijLpBUtDXNSiUqx_3ii-57">
          <mxGeometry x="0.0097" y="-1" relative="1" as="geometry">
            <mxPoint x="-20" y="-1" as="offset" />
          </mxGeometry>
        </mxCell>
        <mxCell id="KijLpBUtDXNSiUqx_3ii-58" value="" style="endArrow=block;html=1;rounded=0;strokeWidth=2;endFill=1;startArrow=block;startFill=1;entryX=0.5;entryY=0;entryDx=0;entryDy=0;sketch=1;curveFitting=1;jiggle=2;fillColor=#bac8d3;strokeColor=#23445d;fontColor=#000000;" edge="1" parent="1">
          <mxGeometry width="50" height="50" relative="1" as="geometry">
            <mxPoint x="680" y="200" as="sourcePoint" />
            <mxPoint x="680.28" y="360" as="targetPoint" />
          </mxGeometry>
        </mxCell>
        <mxCell id="KijLpBUtDXNSiUqx_3ii-60" value="" style="endArrow=classic;html=1;rounded=0;entryX=0.5;entryY=0;entryDx=0;entryDy=0;exitX=0.5;exitY=1;exitDx=0;exitDy=0;sketch=1;curveFitting=1;jiggle=2;fontColor=#000000;" edge="1" parent="1" source="KijLpBUtDXNSiUqx_3ii-55" target="KijLpBUtDXNSiUqx_3ii-53">
          <mxGeometry width="50" height="50" relative="1" as="geometry">
            <mxPoint x="440" y="170" as="sourcePoint" />
            <mxPoint x="430" y="250" as="targetPoint" />
          </mxGeometry>
        </mxCell>
        <mxCell id="KijLpBUtDXNSiUqx_3ii-78" value="Scan" style="edgeLabel;html=1;align=left;verticalAlign=bottom;resizable=0;points=[];labelPosition=right;verticalLabelPosition=top;spacing=2;fontSize=12;fontFamily=Architects Daughter;fontSource=https%3A%2F%2Ffonts.googleapis.com%2Fcss%3Ffamily%3DArchitects%2BDaughter;labelBackgroundColor=none;sketch=1;curveFitting=1;jiggle=2;fontColor=#000000;fontStyle=1" vertex="1" connectable="0" parent="KijLpBUtDXNSiUqx_3ii-60">
          <mxGeometry x="-0.3" relative="1" as="geometry">
            <mxPoint y="6" as="offset" />
          </mxGeometry>
        </mxCell>
        <mxCell id="KijLpBUtDXNSiUqx_3ii-61" value="" style="endArrow=classic;html=1;rounded=0;sketch=1;curveFitting=1;jiggle=2;fillColor=#bac8d3;strokeColor=#23445d;fontColor=#000000;" edge="1" parent="1">
          <mxGeometry width="50" height="50" relative="1" as="geometry">
            <mxPoint x="480" y="159.72" as="sourcePoint" />
            <mxPoint x="120" y="159.72" as="targetPoint" />
          </mxGeometry>
        </mxCell>
        <mxCell id="KijLpBUtDXNSiUqx_3ii-62" value="" style="endArrow=block;html=1;rounded=0;entryX=0;entryY=0.5;entryDx=0;entryDy=0;exitX=1;exitY=0.5;exitDx=0;exitDy=0;endFill=1;sketch=1;curveFitting=1;jiggle=2;fillColor=#bac8d3;strokeColor=#23445d;fontColor=#000000;" edge="1" parent="1" source="KijLpBUtDXNSiUqx_3ii-55" target="KijLpBUtDXNSiUqx_3ii-54">
          <mxGeometry width="50" height="50" relative="1" as="geometry">
            <mxPoint x="530" y="250" as="sourcePoint" />
            <mxPoint x="530" y="290" as="targetPoint" />
          </mxGeometry>
        </mxCell>
        <mxCell id="KijLpBUtDXNSiUqx_3ii-69" value="&lt;font style=&quot;font-size: 12px;&quot;&gt;Sync&lt;/font&gt;" style="edgeLabel;html=1;align=left;verticalAlign=bottom;resizable=0;points=[];labelPosition=right;verticalLabelPosition=top;fontSize=12;labelBackgroundColor=none;fontFamily=Architects Daughter;fontSource=https%3A%2F%2Ffonts.googleapis.com%2Fcss%3Ffamily%3DArchitects%2BDaughter;sketch=1;curveFitting=1;jiggle=2;fontColor=#000000;fontStyle=1" vertex="1" connectable="0" parent="KijLpBUtDXNSiUqx_3ii-62">
          <mxGeometry x="-0.2667" y="1" relative="1" as="geometry">
            <mxPoint x="-14" y="1" as="offset" />
          </mxGeometry>
        </mxCell>
        <mxCell id="KijLpBUtDXNSiUqx_3ii-63" value="" style="endArrow=block;html=1;rounded=0;exitX=1;exitY=0.5;exitDx=0;exitDy=0;endFill=1;sketch=1;curveFitting=1;jiggle=2;fillColor=#bac8d3;strokeColor=#23445d;fontColor=#000000;" edge="1" parent="1">
          <mxGeometry width="50" height="50" relative="1" as="geometry">
            <mxPoint x="720" y="159.72" as="sourcePoint" />
            <mxPoint x="800" y="160" as="targetPoint" />
          </mxGeometry>
        </mxCell>
        <mxCell id="KijLpBUtDXNSiUqx_3ii-70" value="&lt;font style=&quot;font-size: 12px;&quot;&gt;Composite&lt;br style=&quot;font-size: 12px;&quot;&gt;Video Out&lt;/font&gt;" style="edgeLabel;html=1;align=left;verticalAlign=bottom;resizable=0;points=[];labelPosition=right;verticalLabelPosition=top;fontSize=12;labelBackgroundColor=none;fontFamily=Architects Daughter;fontSource=https%3A%2F%2Ffonts.googleapis.com%2Fcss%3Ffamily%3DArchitects%2BDaughter;sketch=1;curveFitting=1;jiggle=2;fontColor=#000000;fontStyle=1" vertex="1" connectable="0" parent="KijLpBUtDXNSiUqx_3ii-63">
          <mxGeometry x="-0.2389" relative="1" as="geometry">
            <mxPoint x="-21" as="offset" />
          </mxGeometry>
        </mxCell>
        <mxCell id="KijLpBUtDXNSiUqx_3ii-64" value="&lt;font style=&quot;font-size: 16px;&quot;&gt;Controller&lt;br style=&quot;font-size: 16px;&quot;&gt;Input Registers&lt;/font&gt;" style="rounded=0;whiteSpace=wrap;html=1;labelBackgroundColor=none;fontStyle=1;fontSize=16;fontFamily=Architects Daughter;fontSource=https%3A%2F%2Ffonts.googleapis.com%2Fcss%3Ffamily%3DArchitects%2BDaughter;sketch=1;curveFitting=1;jiggle=2;fillColor=#bac8d3;strokeColor=#23445d;" vertex="1" parent="1">
          <mxGeometry x="160" y="360" width="120" height="80" as="geometry" />
        </mxCell>
        <mxCell id="KijLpBUtDXNSiUqx_3ii-65" value="" style="endArrow=block;html=1;rounded=0;strokeWidth=2;endFill=1;sketch=1;curveFitting=1;jiggle=2;fillColor=#bac8d3;strokeColor=#23445d;fontColor=#000000;" edge="1" parent="1">
          <mxGeometry width="50" height="50" relative="1" as="geometry">
            <mxPoint x="219.72000000000003" y="320" as="sourcePoint" />
            <mxPoint x="219.72000000000003" y="360" as="targetPoint" />
          </mxGeometry>
        </mxCell>
        <mxCell id="KijLpBUtDXNSiUqx_3ii-67" value="&lt;font style=&quot;font-size: 12px;&quot;&gt;Vertical Blank (to NMI)&lt;/font&gt;" style="edgeLabel;html=1;align=center;verticalAlign=bottom;resizable=0;points=[];labelPosition=center;verticalLabelPosition=top;fontSize=12;labelBackgroundColor=none;fontFamily=Architects Daughter;fontSource=https%3A%2F%2Ffonts.googleapis.com%2Fcss%3Ffamily%3DArchitects%2BDaughter;sketch=1;curveFitting=1;jiggle=2;fontColor=#000000;fontStyle=1" vertex="1" connectable="0" parent="1">
          <mxGeometry x="300.0044444444446" y="160" as="geometry" />
        </mxCell>
        <mxCell id="KijLpBUtDXNSiUqx_3ii-71" value="" style="endArrow=block;html=1;rounded=0;endFill=1;sketch=1;curveFitting=1;jiggle=2;fillColor=#bac8d3;strokeColor=#23445d;fontColor=#000000;" edge="1" parent="1">
          <mxGeometry width="50" height="50" relative="1" as="geometry">
            <mxPoint x="360" y="380" as="sourcePoint" />
            <mxPoint x="280" y="380" as="targetPoint" />
          </mxGeometry>
        </mxCell>
        <mxCell id="KijLpBUtDXNSiUqx_3ii-73" value="Port A" style="edgeLabel;html=1;align=right;verticalAlign=bottom;resizable=0;points=[];fontSize=12;labelPosition=left;verticalLabelPosition=top;labelBackgroundColor=none;fontFamily=Architects Daughter;fontSource=https%3A%2F%2Ffonts.googleapis.com%2Fcss%3Ffamily%3DArchitects%2BDaughter;sketch=1;curveFitting=1;jiggle=2;fontColor=#000000;fontStyle=1" vertex="1" connectable="0" parent="KijLpBUtDXNSiUqx_3ii-71">
          <mxGeometry x="0.032" y="-2" relative="1" as="geometry">
            <mxPoint x="41" y="2" as="offset" />
          </mxGeometry>
        </mxCell>
        <mxCell id="KijLpBUtDXNSiUqx_3ii-72" value="" style="endArrow=block;html=1;rounded=0;endFill=1;sketch=1;curveFitting=1;jiggle=2;fillColor=#bac8d3;strokeColor=#23445d;fontColor=#000000;" edge="1" parent="1">
          <mxGeometry width="50" height="50" relative="1" as="geometry">
            <mxPoint x="360" y="420" as="sourcePoint" />
            <mxPoint x="280" y="420" as="targetPoint" />
          </mxGeometry>
        </mxCell>
        <mxCell id="KijLpBUtDXNSiUqx_3ii-74" value="&lt;font style=&quot;font-size: 12px;&quot;&gt;Port B&lt;/font&gt;" style="edgeLabel;html=1;align=right;verticalAlign=bottom;resizable=0;points=[];labelPosition=left;verticalLabelPosition=top;fontSize=12;labelBackgroundColor=none;fontFamily=Architects Daughter;fontSource=https%3A%2F%2Ffonts.googleapis.com%2Fcss%3Ffamily%3DArchitects%2BDaughter;sketch=1;curveFitting=1;jiggle=2;fontColor=#000000;fontStyle=1" vertex="1" connectable="0" parent="KijLpBUtDXNSiUqx_3ii-72">
          <mxGeometry x="-0.5262" y="-2" relative="1" as="geometry">
            <mxPoint x="19" y="2" as="offset" />
          </mxGeometry>
        </mxCell>
        <mxCell id="KijLpBUtDXNSiUqx_3ii-75" value="" style="endArrow=none;html=1;rounded=0;strokeWidth=2;endFill=0;startArrow=block;startFill=1;edgeStyle=orthogonalEdgeStyle;sketch=1;curveFitting=1;jiggle=2;fillColor=#bac8d3;strokeColor=#23445d;fontColor=#000000;" edge="1" parent="1">
          <mxGeometry width="50" height="50" relative="1" as="geometry">
            <mxPoint x="640" y="360" as="sourcePoint" />
            <mxPoint x="560" y="320" as="targetPoint" />
            <Array as="points">
              <mxPoint x="640" y="320" />
            </Array>
          </mxGeometry>
        </mxCell>
        <mxCell id="KijLpBUtDXNSiUqx_3ii-77" value="&lt;font style=&quot;font-size: 12px;&quot;&gt;Address&lt;/font&gt;" style="edgeLabel;html=1;align=center;verticalAlign=bottom;resizable=0;points=[];labelPosition=center;verticalLabelPosition=top;labelBackgroundColor=none;fontFamily=Architects Daughter;fontSource=https%3A%2F%2Ffonts.googleapis.com%2Fcss%3Ffamily%3DArchitects%2BDaughter;sketch=1;curveFitting=1;jiggle=2;fontColor=#000000;fontStyle=1" vertex="1" connectable="0" parent="KijLpBUtDXNSiUqx_3ii-75">
          <mxGeometry x="0.3625" y="1" relative="1" as="geometry">
            <mxPoint x="2" y="-1" as="offset" />
          </mxGeometry>
        </mxCell>
      </root>
    </mxGraphModel>
  </diagram>
</mxfile>
